<svg id="Icons" height="512" viewBox="0 0 74 74" width="512" xmlns="http://www.w3.org/2000/svg"><path d="m22.859 60.29a1 1 0 0 1 -.983-.822l-.551-3.04a1 1 0 0 1 1.969-.356l.551 3.04a1 1 0 0 1 -.986 1.178z"/><path d="m49.04 72h-24.08a1 1 0 0 1 -.984-.823l-.821-4.55a1 1 0 0 1 1.969-.354l.676 3.727h22.4l3.512-19.547a14.913 14.913 0 0 0 -10.474-16.984 14.961 14.961 0 0 0 -19.2 14.3q0 .6.056 1.2a1 1 0 0 1 -1.992.186q-.064-.691-.064-1.383a16.956 16.956 0 1 1 33.645 3.037l-3.661 20.37a1 1 0 0 1 -.982.821z"/><path d="m46.439 58.115a.971.971 0 0 1 -.177-.016 1 1 0 0 1 -.808-1.161l1.324-7.375a9.918 9.918 0 0 0 -1.253-6.823 1 1 0 0 1 1.719-1.023 11.918 11.918 0 0 1 1.5 8.2l-1.324 7.376a1 1 0 0 1 -.981.822z"/><path d="m41.517 33.508a1 1 0 0 1 -1-1v-4.671h-7.034v4.671a1 1 0 0 1 -2 0v-5.671a1 1 0 0 1 1-1h9.034a1 1 0 0 1 1 1v5.671a1 1 0 0 1 -1 1z"/><path d="m44.888 27.837h-15.776a2 2 0 0 1 -1.986-2.266l2.885-21.83a2.009 2.009 0 0 1 1.989-1.741h10a2.008 2.008 0 0 1 1.986 1.742l2.885 21.83a2 2 0 0 1 -1.986 2.265zm-12.888-23.837-2.885 21.83h15.78l-2.888-21.83z"/></svg>