<?xml version="1.0" encoding="utf-8"?>
<!-- Generator: Adobe Illustrator 24.2.3, SVG Export Plug-In . SVG Version: 6.00 Build 0)  -->
<svg version="1.1" id="Layer_1" xmlns="http://www.w3.org/2000/svg" xmlns:xlink="http://www.w3.org/1999/xlink" x="0px" y="0px"
	 viewBox="0 0 232.97 139.87" style="enable-background:new 0 0 232.97 139.87;" xml:space="preserve">
<style type="text/css">
	.st0{fill:url(#SVGID_1_);}
	.st1{fill:url(#SVGID_2_);}
	.st2{fill:url(#SVGID_3_);}
	.st3{fill:#CE989E;}
</style>
<g>
	<g>
		<g>
			<linearGradient id="SVGID_1_" gradientUnits="userSpaceOnUse" x1="3.7277" y1="107.3169" x2="209.4416" y2="21.3632">
				<stop  offset="0" style="stop-color:#CF8989"/>
				<stop  offset="0.1507" style="stop-color:#CF8989"/>
				<stop  offset="0.3593" style="stop-color:#ECC6C0"/>
				<stop  offset="0.4621" style="stop-color:#FCE3DB"/>
				<stop  offset="1" style="stop-color:#CF8989"/>
			</linearGradient>
			<path class="st0" d="M19.31,67.17c-1.46,1.91-2.02,3.6-1.69,5.06c0.34,1.46,1.12,2.98,2.36,4.55c1.24,1.69,2.39,3.37,3.46,5.06
				c1.07,1.69,1.88,3.6,2.44,5.73c5.06-1.69,10.17-3.54,15.34-5.56c5.17-2.02,9.72-4.32,13.65-6.91c0.67-0.45,1.29-0.28,1.85,0.51
				c0.56,0.79,0.45,1.41-0.34,1.85c-4.16,2.7-8.93,5.11-14.33,7.25c-5.39,2.14-10.68,4.04-15.84,5.73
				c-0.56,3.26-2.05,5.62-4.47,7.08c-2.42,1.46-5.09,2.47-8.01,3.03c-3.14,0.45-5.93,0.53-8.34,0.25c-2.42-0.28-4.04-0.81-4.89-1.6
				c-0.84-0.78-0.65-1.74,0.59-2.87c1.24-1.12,3.93-2.3,8.09-3.54c2.25-0.67,4.07-1.21,5.48-1.6c1.4-0.39,2.78-0.81,4.13-1.26
				c-0.23-2.25-0.87-4.24-1.94-5.98c-1.07-1.74-2.22-3.4-3.46-4.97c-1.58-1.57-2.58-3.37-3.03-5.39c-0.45-2.02-0.22-3.99,0.67-5.9
				c0.67-1.35,1.66-2.47,2.95-3.37c1.29-0.9,2.55-1.57,3.79-2.02c1.01-0.22,1.74-0.2,2.19,0.08c0.45,0.28,0.7,0.73,0.76,1.35
				c0.06,0.62-0.06,1.24-0.34,1.85C20.12,66.19,19.75,66.72,19.31,67.17z M13.24,97c1.12-0.45,2.11-0.98,2.95-1.6
				c0.84-0.62,1.54-1.43,2.11-2.44c-1.12,0.34-2.25,0.7-3.37,1.1c-1.12,0.4-2.75,0.87-4.89,1.43c-2.81,0.79-4.47,1.41-4.97,1.85
				c-0.51,0.45-0.36,0.73,0.42,0.84c0.79,0.11,1.94,0.08,3.46-0.08C10.46,97.93,11.89,97.57,13.24,97z"/>
			<linearGradient id="SVGID_2_" gradientUnits="userSpaceOnUse" x1="3.7277" y1="107.3169" x2="209.4416" y2="21.3632">
				<stop  offset="0" style="stop-color:#CF8989"/>
				<stop  offset="0.1507" style="stop-color:#CF8989"/>
				<stop  offset="0.3593" style="stop-color:#ECC6C0"/>
				<stop  offset="0.4621" style="stop-color:#FCE3DB"/>
				<stop  offset="1" style="stop-color:#CF8989"/>
			</linearGradient>
			<path class="st1" d="M111.5,19.64c-0.79,3.82-2.3,8.01-4.55,12.56c-2.25,4.55-5.37,9.24-9.35,14.07
				c-3.99,4.83-8.91,9.69-14.75,14.58c-5.84,4.89-12.7,9.52-20.56,13.91c-0.11,0-0.17,0.06-0.17,0.17
				c-0.23,1.35-0.37,2.73-0.42,4.13c-0.06,1.41-0.14,2.78-0.25,4.13c-0.23,3.82,0.42,5.56,1.94,5.23s3.57-2.13,6.15-5.39
				c1.91-2.13,4.07-4.41,6.49-6.83c2.42-2.42,4.97-4.58,7.67-6.49c1.35-0.9,2.84-1.8,4.47-2.7c1.63-0.9,3.26-1.6,4.89-2.11
				c1.63-0.51,3.23-0.78,4.8-0.84c1.57-0.06,3.03,0.31,4.38,1.1c2.25,1.57,3.4,3.57,3.46,5.98c0.06,2.42-0.2,4.75-0.76,6.99
				c-0.56,2.02-1.26,4.13-2.11,6.32c-0.84,2.19-1.71,4.41-2.61,6.66c-0.9,2.25-1.71,4.44-2.44,6.57c-0.73,2.14-1.35,4.1-1.85,5.9
				c-0.51,1.8-0.84,3.37-1.01,4.72c-0.17,1.35-0.08,2.36,0.25,3.03c0.45,0.67,1.54,0.7,3.29,0.08c1.74-0.62,3.59-1.49,5.56-2.61
				c1.96-1.12,3.82-2.28,5.56-3.46c1.74-1.18,2.95-1.99,3.62-2.44c6.29-4.27,12.61-8.79,18.96-13.57
				c6.35-4.77,12.56-9.52,18.62-14.24c0.9-0.45,1.6-0.34,2.11,0.34c0.51,0.67,0.36,1.29-0.42,1.85
				c-6.29,5.06-12.75,10.09-19.38,15.09c-6.63,5-13.26,9.69-19.89,14.07c-1.24,0.79-2.95,1.91-5.14,3.37
				c-2.19,1.46-4.47,2.7-6.83,3.71c-2.36,1.01-4.58,1.55-6.66,1.6c-2.08,0.06-3.62-0.87-4.63-2.78c-0.67-1.12-0.99-2.58-0.93-4.38
				c0.06-1.8,0.34-3.76,0.84-5.9c0.51-2.13,1.15-4.44,1.94-6.91c0.78-2.47,1.63-4.94,2.53-7.42c1.01-3.03,1.94-6.07,2.78-9.1
				s1.12-5.53,0.84-7.5c-0.28-1.96-1.35-3-3.2-3.12c-1.85-0.11-4.97,1.24-9.35,4.05c-2.59,1.8-5.06,3.88-7.42,6.24
				c-2.36,2.36-4.5,4.61-6.4,6.74c-1.91,2.25-3.88,4.24-5.9,5.98c-2.02,1.74-3.91,2.78-5.65,3.12c-1.74,0.34-3.18-0.28-4.3-1.85
				c-1.12-1.57-1.63-4.55-1.52-8.93c0.11-6.29,0.87-12.81,2.28-19.55c1.4-6.74,3.4-13.48,5.98-20.23
				c2.25-5.95,5.03-11.71,8.34-17.28c3.31-5.56,7.11-10.76,11.38-15.59c3.26-3.48,6.85-6.15,10.79-8.01
				c3.93-1.85,7.47-2.53,10.62-2.02c3.14,0.51,5.53,2.28,7.16,5.31C112.37,9.02,112.62,13.57,111.5,19.64z M88.75,12.39
				c-4.16,4.72-7.81,9.78-10.96,15.17c-3.15,5.39-5.84,10.96-8.09,16.69c-3.48,9.1-5.84,18.15-7.08,27.14
				c7.42-4.27,13.85-8.74,19.3-13.4c5.45-4.66,10.03-9.27,13.74-13.82s6.6-8.96,8.68-13.23c2.08-4.27,3.51-8.2,4.3-11.8
				c1.12-5.17,1.18-8.9,0.17-11.21c-1.01-2.3-2.61-3.57-4.8-3.79c-2.19-0.22-4.66,0.42-7.42,1.94C93.83,7.59,91.22,9.69,88.75,12.39
				z"/>
			<linearGradient id="SVGID_3_" gradientUnits="userSpaceOnUse" x1="3.7277" y1="107.3169" x2="209.4416" y2="21.3632">
				<stop  offset="0" style="stop-color:#CF8989"/>
				<stop  offset="0.1507" style="stop-color:#CF8989"/>
				<stop  offset="0.3593" style="stop-color:#ECC6C0"/>
				<stop  offset="0.4621" style="stop-color:#FCE3DB"/>
				<stop  offset="1" style="stop-color:#CF8989"/>
			</linearGradient>
			<path class="st2" d="M158.02,76.1c-2.02,2.47-3.34,4.92-3.96,7.33c-0.62,2.42-0.56,4.61,0.17,6.57c0.73,1.97,2.11,3.65,4.13,5.06
				c2.02,1.41,4.66,2.33,7.92,2.78c1.69,0.23,3.71,0.14,6.07-0.25c2.36-0.39,4.77-0.9,7.25-1.52c2.47-0.62,4.86-1.29,7.16-2.02
				c2.3-0.73,4.3-1.38,5.98-1.94c3.82-1.35,7.58-2.75,11.29-4.21c3.71-1.46,7.19-2.95,10.45-4.47c3.26-1.52,6.24-3,8.93-4.47
				c2.7-1.46,4.94-2.75,6.74-3.88c0.9-0.45,1.54-0.28,1.94,0.51c0.39,0.79,0.25,1.46-0.42,2.02c-1.91,1.12-4.21,2.39-6.91,3.79
				c-2.7,1.41-5.7,2.89-9.02,4.47c-3.32,1.58-6.86,3.12-10.62,4.64c-3.77,1.52-7.56,2.95-11.38,4.3c-4.72,1.58-9.58,3.03-14.58,4.38
				c-5,1.35-10.03,1.91-15.08,1.69c-4.95-0.11-8.76-1.1-11.46-2.95s-4.47-4.13-5.31-6.83s-0.87-5.59-0.08-8.68
				c0.79-3.09,2.22-6.04,4.3-8.85c2.08-2.81,4.66-5.2,7.75-7.16c3.09-1.96,6.49-3.17,10.2-3.62c2.81-0.34,5.31-0.34,7.5,0
				c2.19,0.34,3.79,0.9,4.8,1.69c1.01,0.79,1.35,1.77,1.01,2.95s-1.57,2.39-3.71,3.62c-3.26,1.91-6.66,3.18-10.2,3.79
				C165.35,75.46,161.73,75.88,158.02,76.1z M161.05,72.9c2.47-0.22,5.48-0.62,9.02-1.18c3.54-0.56,6.43-1.46,8.68-2.7
				c1.12-0.67,1.63-1.26,1.52-1.77c-0.11-0.51-0.56-0.87-1.35-1.1c-0.79-0.22-1.85-0.28-3.2-0.17c-1.35,0.11-2.75,0.45-4.21,1.01
				c-2.14,0.79-4.04,1.66-5.73,2.61C164.09,70.57,162.51,71.66,161.05,72.9z"/>
		</g>
	</g>
	<g>
		<path class="st3" d="M25.91,123.3c0,0.56-0.37,1.05-1.02,1.05c-0.55,0-0.94-0.49-0.94-1.05c0-0.56,0.43-1.05,0.98-1.05
			C25.52,122.24,25.91,122.72,25.91,123.3z M24.33,138.97v-12.19h1.21v12.19H24.33z"/>
		<path class="st3" d="M31.68,137.37c0.65,0.41,1.64,0.84,2.74,0.84c1.92,0,2.83-1.05,2.83-2.32c0-1.34-0.81-2.06-2.56-2.75
			c-1.99-0.77-3.09-1.86-3.09-3.34c0-1.76,1.38-3.3,3.75-3.3c1.12,0,2.07,0.34,2.7,0.77l-0.48,0.98c-0.42-0.3-1.21-0.74-2.41-0.74
			c-1.55,0-2.37,1-2.37,2.11c0,1.28,0.86,1.82,2.53,2.5c1.97,0.78,3.14,1.76,3.14,3.61c0,2.09-1.62,3.5-4.11,3.5
			c-1.17,0-2.29-0.34-3.1-0.84L31.68,137.37z"/>
		<path class="st3" d="M53.96,123.25v3.53h3.47v0.98h-3.47v7.92c0,1.55,0.48,2.52,1.79,2.52c0.63,0,1.07-0.08,1.38-0.19l0.15,0.93
			c-0.39,0.17-0.95,0.29-1.68,0.29c-0.89,0-1.63-0.28-2.1-0.86c-0.55-0.64-0.74-1.66-0.74-2.91v-7.71H50.7v-0.98h2.06v-3.14
			L53.96,123.25z"/>
		<path class="st3" d="M62.67,120.94h1.21v8.02h0.05c0.35-0.68,0.94-1.33,1.66-1.76c0.7-0.43,1.53-0.7,2.46-0.7
			c1.16,0,4.23,0.58,4.23,5.12v7.35h-1.21v-7.22c0-2.2-0.86-4.2-3.36-4.2c-1.73,0-3.15,1.24-3.68,2.76c-0.13,0.36-0.17,0.7-0.17,1.2
			v7.45h-1.21V120.94z"/>
		<path class="st3" d="M79,132.76c0,3.89,2.12,5.43,4.63,5.43c1.78,0,2.7-0.36,3.39-0.69l0.31,0.95c-0.47,0.25-1.72,0.78-3.85,0.78
			c-3.5,0-5.68-2.55-5.68-6.12c0-4.07,2.33-6.61,5.48-6.61c3.99,0,4.75,3.75,4.75,5.51c0,0.34,0,0.53-0.04,0.75H79z M86.77,131.8
			c0.03-1.7-0.68-4.29-3.64-4.29c-2.68,0-3.84,2.41-4.06,4.29H86.77z"/>
		<path class="st3" d="M115.79,130.24c0,6.03-3.69,9.01-7.66,9.01c-4.21,0-7.46-3.31-7.46-8.66c0-5.61,3.4-9.01,7.67-9.01
			C112.66,121.58,115.79,124.94,115.79,130.24z M101.92,130.55c0,3.85,2.24,7.69,6.28,7.69c4.06,0,6.33-3.69,6.33-7.92
			c0-3.61-1.97-7.73-6.28-7.73C103.93,122.59,101.92,126.55,101.92,130.55z"/>
		<path class="st3" d="M121.36,129.7c0-1.12-0.04-1.96-0.1-2.91h1.12l0.09,2.2h0.05c0.67-1.37,2.2-2.48,4.2-2.48
			c1.16,0,4.25,0.6,4.25,5.16v7.31h-1.21v-7.2c0-2.22-0.86-4.23-3.38-4.23c-1.71,0-3.17,1.23-3.66,2.81
			c-0.09,0.29-0.17,0.7-0.17,1.09v7.54h-1.21V129.7z"/>
		<path class="st3" d="M137.69,132.76c0,3.89,2.12,5.43,4.63,5.43c1.78,0,2.7-0.36,3.39-0.69l0.31,0.95
			c-0.47,0.25-1.72,0.78-3.85,0.78c-3.5,0-5.68-2.55-5.68-6.12c0-4.07,2.33-6.61,5.48-6.61c3.99,0,4.75,3.75,4.75,5.51
			c0,0.34,0,0.53-0.04,0.75H137.69z M145.46,131.8c0.03-1.7-0.68-4.29-3.64-4.29c-2.68,0-3.84,2.41-4.06,4.29H145.46z"/>
	</g>
</g>
</svg>
